<mxfile host="app.diagrams.net" modified="2021-09-30T01:26:39.803Z" agent="5.0 (Windows NT 10.0; Win64; x64) AppleWebKit/537.36 (KHTML, like Gecko) Chrome/94.0.4606.61 Safari/537.36" etag="NeV1ZILaVje0Rr-JB5vr" version="14.9.5" type="github">
  <diagram id="pXROciQfCgQjQGTtyUiz" name="Page-1">
    <mxGraphModel dx="1038" dy="547" grid="1" gridSize="10" guides="1" tooltips="1" connect="1" arrows="1" fold="1" page="1" pageScale="1" pageWidth="850" pageHeight="1100" math="0" shadow="0">
      <root>
        <mxCell id="0" />
        <mxCell id="1" parent="0" />
        <mxCell id="21_OyphQgtopROuSo2bV-1" value="" style="pointerEvents=1;shadow=0;dashed=0;html=1;strokeColor=none;fillColor=#4495D1;labelPosition=center;verticalLabelPosition=bottom;verticalAlign=top;align=center;outlineConnect=0;shape=mxgraph.veeam.2d.workstation;" vertex="1" parent="1">
          <mxGeometry x="29.999999999999996" y="330" width="136.4" height="111.2" as="geometry" />
        </mxCell>
        <mxCell id="21_OyphQgtopROuSo2bV-3" value="" style="edgeStyle=orthogonalEdgeStyle;rounded=0;orthogonalLoop=1;jettySize=auto;html=1;" edge="1" parent="1" source="21_OyphQgtopROuSo2bV-2" target="21_OyphQgtopROuSo2bV-1">
          <mxGeometry relative="1" as="geometry" />
        </mxCell>
        <mxCell id="21_OyphQgtopROuSo2bV-2" value="&lt;font style=&quot;font-size: 21px&quot;&gt;Workstation&lt;/font&gt;" style="text;html=1;align=center;verticalAlign=middle;resizable=0;points=[];autosize=1;strokeColor=none;" vertex="1" parent="1">
          <mxGeometry x="48.2" y="370" width="130" height="20" as="geometry" />
        </mxCell>
        <mxCell id="21_OyphQgtopROuSo2bV-6" style="edgeStyle=orthogonalEdgeStyle;rounded=0;orthogonalLoop=1;jettySize=auto;html=1;" edge="1" parent="1" source="21_OyphQgtopROuSo2bV-4">
          <mxGeometry relative="1" as="geometry">
            <mxPoint x="110" y="300" as="targetPoint" />
          </mxGeometry>
        </mxCell>
        <mxCell id="21_OyphQgtopROuSo2bV-21" style="edgeStyle=orthogonalEdgeStyle;rounded=0;orthogonalLoop=1;jettySize=auto;html=1;" edge="1" parent="1" source="21_OyphQgtopROuSo2bV-4">
          <mxGeometry relative="1" as="geometry">
            <mxPoint x="290" y="116.70000000000005" as="targetPoint" />
          </mxGeometry>
        </mxCell>
        <mxCell id="21_OyphQgtopROuSo2bV-4" value="" style="aspect=fixed;perimeter=ellipsePerimeter;html=1;align=center;shadow=0;dashed=0;spacingTop=3;image;image=img/lib/active_directory/internet_cloud.svg;" vertex="1" parent="1">
          <mxGeometry x="30" y="60" width="160" height="100.8" as="geometry" />
        </mxCell>
        <mxCell id="21_OyphQgtopROuSo2bV-5" value="&lt;font style=&quot;font-size: 21px&quot;&gt;Internet&lt;/font&gt;" style="text;html=1;align=center;verticalAlign=middle;resizable=0;points=[];autosize=1;strokeColor=none;" vertex="1" parent="1">
          <mxGeometry x="53.2" y="10" width="90" height="20" as="geometry" />
        </mxCell>
        <mxCell id="21_OyphQgtopROuSo2bV-7" value="&lt;font style=&quot;font-size: 13px&quot;&gt;SSH from internal rule Port 22&lt;/font&gt;" style="text;html=1;align=center;verticalAlign=middle;resizable=0;points=[];autosize=1;strokeColor=none;" vertex="1" parent="1">
          <mxGeometry x="110" y="180" width="190" height="20" as="geometry" />
        </mxCell>
        <mxCell id="21_OyphQgtopROuSo2bV-8" value="&lt;font style=&quot;font-size: 13px&quot;&gt;Port 80 HTTP&lt;/font&gt;" style="text;html=1;align=center;verticalAlign=middle;resizable=0;points=[];autosize=1;strokeColor=none;" vertex="1" parent="1">
          <mxGeometry x="20" y="240" width="90" height="20" as="geometry" />
        </mxCell>
        <mxCell id="21_OyphQgtopROuSo2bV-9" value="" style="whiteSpace=wrap;html=1;aspect=fixed;" vertex="1" parent="1">
          <mxGeometry x="305" width="550" height="550" as="geometry" />
        </mxCell>
        <mxCell id="21_OyphQgtopROuSo2bV-12" value="" style="shape=ext;double=1;whiteSpace=wrap;html=1;aspect=fixed;" vertex="1" parent="1">
          <mxGeometry x="330" y="30" width="480" height="480" as="geometry" />
        </mxCell>
        <mxCell id="21_OyphQgtopROuSo2bV-13" value="&lt;font color=&quot;#0000cc&quot;&gt;Azure Virtual Network 10.0.0.0/16&lt;/font&gt;" style="text;html=1;resizable=0;autosize=1;align=center;verticalAlign=middle;points=[];fillColor=none;strokeColor=none;rounded=0;" vertex="1" parent="1">
          <mxGeometry x="410" y="10" width="190" height="20" as="geometry" />
        </mxCell>
        <mxCell id="21_OyphQgtopROuSo2bV-14" value="&lt;font color=&quot;#0000cc&quot;&gt;Azure Virtual Subnet 10.0.0.0/24&lt;/font&gt;" style="text;html=1;resizable=0;autosize=1;align=center;verticalAlign=middle;points=[];fillColor=none;strokeColor=none;rounded=0;" vertex="1" parent="1">
          <mxGeometry x="410" y="50" width="190" height="20" as="geometry" />
        </mxCell>
        <mxCell id="21_OyphQgtopROuSo2bV-24" style="edgeStyle=orthogonalEdgeStyle;rounded=0;orthogonalLoop=1;jettySize=auto;html=1;entryX=0.156;entryY=0.604;entryDx=0;entryDy=0;entryPerimeter=0;" edge="1" parent="1" source="21_OyphQgtopROuSo2bV-15" target="21_OyphQgtopROuSo2bV-12">
          <mxGeometry relative="1" as="geometry" />
        </mxCell>
        <mxCell id="21_OyphQgtopROuSo2bV-35" value="" style="edgeStyle=orthogonalEdgeStyle;rounded=0;orthogonalLoop=1;jettySize=auto;html=1;" edge="1" parent="1" source="21_OyphQgtopROuSo2bV-15" target="21_OyphQgtopROuSo2bV-31">
          <mxGeometry relative="1" as="geometry" />
        </mxCell>
        <mxCell id="21_OyphQgtopROuSo2bV-15" value="" style="image;html=1;image=img/lib/clip_art/networking/Firewall_02_128x128.png" vertex="1" parent="1">
          <mxGeometry x="370" y="100" width="90" height="90" as="geometry" />
        </mxCell>
        <mxCell id="21_OyphQgtopROuSo2bV-16" value="&lt;font color=&quot;#003300&quot;&gt;Red-Team Security Group&lt;/font&gt;" style="text;html=1;resizable=0;autosize=1;align=center;verticalAlign=middle;points=[];fillColor=none;strokeColor=none;rounded=0;" vertex="1" parent="1">
          <mxGeometry x="340" y="80.00000000000001" width="150" height="20" as="geometry" />
        </mxCell>
        <mxCell id="21_OyphQgtopROuSo2bV-22" value="HTTP Port 80" style="text;html=1;align=center;verticalAlign=middle;resizable=0;points=[];autosize=1;strokeColor=none;" vertex="1" parent="1">
          <mxGeometry x="185" y="90" width="90" height="20" as="geometry" />
        </mxCell>
        <mxCell id="21_OyphQgtopROuSo2bV-43" style="edgeStyle=orthogonalEdgeStyle;rounded=0;orthogonalLoop=1;jettySize=auto;html=1;fontSize=14;exitX=0.889;exitY=0.6;exitDx=0;exitDy=0;exitPerimeter=0;" edge="1" parent="1" source="21_OyphQgtopROuSo2bV-25" target="21_OyphQgtopROuSo2bV-27">
          <mxGeometry relative="1" as="geometry" />
        </mxCell>
        <mxCell id="21_OyphQgtopROuSo2bV-44" style="edgeStyle=orthogonalEdgeStyle;rounded=0;orthogonalLoop=1;jettySize=auto;html=1;fontSize=14;" edge="1" parent="1" source="21_OyphQgtopROuSo2bV-25" target="21_OyphQgtopROuSo2bV-28">
          <mxGeometry relative="1" as="geometry" />
        </mxCell>
        <mxCell id="21_OyphQgtopROuSo2bV-25" value="" style="fontColor=#0066CC;verticalAlign=top;verticalLabelPosition=bottom;labelPosition=center;align=center;html=1;outlineConnect=0;fillColor=#CCCCCC;strokeColor=#6881B3;gradientColor=none;gradientDirection=north;strokeWidth=2;shape=mxgraph.networks.server;" vertex="1" parent="1">
          <mxGeometry x="380" y="350" width="90" height="100" as="geometry" />
        </mxCell>
        <mxCell id="21_OyphQgtopROuSo2bV-26" value="Jumpbox VM:&lt;br&gt;&lt;div class=&quot;ext-overview-property-key&quot; style=&quot;font-size: 13px ; color: rgb(100 , 100 , 100) ; font-family: &amp;#34;az_ea_font&amp;#34; , &amp;#34;segoe ui&amp;#34; , &amp;#34;az_font&amp;#34; , , , &amp;#34;blinkmacsystemfont&amp;#34; , &amp;#34;roboto&amp;#34; , &amp;#34;oxygen&amp;#34; , &amp;#34;ubuntu&amp;#34; , &amp;#34;cantarell&amp;#34; , &amp;#34;open sans&amp;#34; , &amp;#34;helvetica neue&amp;#34; , sans-serif ; background-color: rgb(255 , 255 , 255) ; outline: none&quot;&gt;Public IP address&lt;/div&gt;&lt;div class=&quot;ext-overview-property-value fxc-base msportalfx-customHtml msportalfx-form-formelement&quot; style=&quot;font-size: 13px ; overflow-wrap: break-word ; color: rgb(50 , 49 , 48) ; font-family: &amp;#34;az_ea_font&amp;#34; , &amp;#34;segoe ui&amp;#34; , &amp;#34;az_font&amp;#34; , , , &amp;#34;blinkmacsystemfont&amp;#34; , &amp;#34;roboto&amp;#34; , &amp;#34;oxygen&amp;#34; , &amp;#34;ubuntu&amp;#34; , &amp;#34;cantarell&amp;#34; , &amp;#34;open sans&amp;#34; , &amp;#34;helvetica neue&amp;#34; , sans-serif ; background-color: rgb(255 , 255 , 255) ; outline: none&quot;&gt;&lt;div class=&quot;azc-formElementSubLabelContainer&quot; style=&quot;font-weight: inherit ; height: 17.6px ; outline: none&quot;&gt;&lt;div class=&quot;azc-formElementContainer&quot; style=&quot;font-weight: inherit ; height: 17.6px ; outline: none&quot;&gt;&lt;a target=&quot;_blank&quot; tabindex=&quot;0&quot; href=&quot;https://portal.azure.com/&quot; class=&quot;fxs-fxclick&quot; style=&quot;font-weight: inherit ; color: rgb(0 , 120 , 212) ; cursor: pointer ; outline: none&quot;&gt;104.211.14.49&lt;/a&gt;&lt;/div&gt;&lt;/div&gt;&lt;/div&gt;" style="text;html=1;resizable=0;autosize=1;align=center;verticalAlign=middle;points=[];fillColor=none;strokeColor=none;rounded=0;" vertex="1" parent="1">
          <mxGeometry x="365" y="450" width="120" height="50" as="geometry" />
        </mxCell>
        <mxCell id="21_OyphQgtopROuSo2bV-27" value="" style="aspect=fixed;perimeter=ellipsePerimeter;html=1;align=center;shadow=0;dashed=0;spacingTop=3;image;image=img/lib/active_directory/web_server.svg;" vertex="1" parent="1">
          <mxGeometry x="550" y="350" width="72" height="90" as="geometry" />
        </mxCell>
        <mxCell id="21_OyphQgtopROuSo2bV-28" value="" style="aspect=fixed;perimeter=ellipsePerimeter;html=1;align=center;shadow=0;dashed=0;spacingTop=3;image;image=img/lib/active_directory/web_server.svg;" vertex="1" parent="1">
          <mxGeometry x="690" y="350" width="70" height="87.5" as="geometry" />
        </mxCell>
        <mxCell id="21_OyphQgtopROuSo2bV-38" style="edgeStyle=orthogonalEdgeStyle;rounded=0;orthogonalLoop=1;jettySize=auto;html=1;entryX=0.4;entryY=0.002;entryDx=0;entryDy=0;entryPerimeter=0;" edge="1" parent="1" source="21_OyphQgtopROuSo2bV-29" target="21_OyphQgtopROuSo2bV-28">
          <mxGeometry relative="1" as="geometry" />
        </mxCell>
        <mxCell id="21_OyphQgtopROuSo2bV-39" style="edgeStyle=orthogonalEdgeStyle;rounded=0;orthogonalLoop=1;jettySize=auto;html=1;" edge="1" parent="1" source="21_OyphQgtopROuSo2bV-29" target="21_OyphQgtopROuSo2bV-27">
          <mxGeometry relative="1" as="geometry" />
        </mxCell>
        <mxCell id="21_OyphQgtopROuSo2bV-29" value="" style="verticalLabelPosition=bottom;html=1;verticalAlign=top;align=center;strokeColor=none;fillColor=#00BEF2;shape=mxgraph.azure.azure_load_balancer;" vertex="1" parent="1">
          <mxGeometry x="590" y="130" width="130" height="70" as="geometry" />
        </mxCell>
        <mxCell id="21_OyphQgtopROuSo2bV-30" value="SSH Port 22" style="text;html=1;resizable=0;autosize=1;align=center;verticalAlign=middle;points=[];fillColor=none;strokeColor=none;rounded=0;" vertex="1" parent="1">
          <mxGeometry x="470" y="417.5" width="80" height="20" as="geometry" />
        </mxCell>
        <mxCell id="21_OyphQgtopROuSo2bV-31" value="Azure Load Balancer&lt;br&gt;&lt;a class=&quot;msportalfx-text-primary fxc-essentials-value fxs-portal-text fxs-fxclick&quot; tabindex=&quot;0&quot; title=&quot;40.76.75.61 (Red-Team-LB)&quot; id=&quot;_essentials_63&quot; href=&quot;https://portal.azure.com/#blade/HubsExtension/ResourceMenuBlade/id/%2Fsubscriptions%2F97da4dfa-556d-4106-b111-5e24818ff235%2FresourceGroups%2FRed-Team%2Fproviders%2FMicrosoft.Network%2FloadBalancers%2FRed-Team-LB/menuid/frontendIpPool&quot; style=&quot;font-size: 13px ; color: rgb(0 , 120 , 212) ; cursor: pointer ; overflow: hidden ; height: 18px ; line-height: 18px ; display: inline-block ; text-overflow: ellipsis ; text-align: left ; max-width: 100% ; padding: 0px ; border: 0px ; font-family: &amp;#34;az_ea_font&amp;#34; , &amp;#34;segoe ui&amp;#34; , &amp;#34;az_font&amp;#34; , , , &amp;#34;blinkmacsystemfont&amp;#34; , &amp;#34;roboto&amp;#34; , &amp;#34;oxygen&amp;#34; , &amp;#34;ubuntu&amp;#34; , &amp;#34;cantarell&amp;#34; , &amp;#34;open sans&amp;#34; , &amp;#34;helvetica neue&amp;#34; , sans-serif ; background-color: rgb(255 , 255 , 255) ; outline: none&quot;&gt;40.76.75.61 (Red-Team-LB)&lt;/a&gt;&lt;div class=&quot;fxs-copyfield-wrapper&quot; style=&quot;font-size: 13px ; position: absolute ; top: 0px ; right: 0px ; width: 24px ; height: 18px ; color: rgb(50 , 49 , 48) ; font-family: &amp;#34;az_ea_font&amp;#34; , &amp;#34;segoe ui&amp;#34; , &amp;#34;az_font&amp;#34; , , , &amp;#34;blinkmacsystemfont&amp;#34; , &amp;#34;roboto&amp;#34; , &amp;#34;oxygen&amp;#34; , &amp;#34;ubuntu&amp;#34; , &amp;#34;cantarell&amp;#34; , &amp;#34;open sans&amp;#34; , &amp;#34;helvetica neue&amp;#34; , sans-serif ; background-color: rgb(255 , 255 , 255) ; outline: none&quot;&gt;&lt;div class=&quot;fxs-copyfield fxc-base msportalfx-form-formelement&quot; style=&quot;font-weight: inherit ; position: absolute ; width: 24px ; top: 0px ; right: 0px ; opacity: 0 ; outline: none&quot;&gt;&lt;div class=&quot;azc-formElementSubLabelContainer&quot; style=&quot;font-weight: inherit ; outline: none&quot;&gt;&lt;div class=&quot;azc-formElementContainer&quot; style=&quot;font-weight: inherit ; outline: none&quot;&gt;&lt;div class=&quot;fxc-copyablelabel fxc-copyablelabel-disabled&quot; style=&quot;font-weight: inherit ; overflow: hidden ; padding: 0px ; background-color: transparent ; margin: -3px 0px -3px -0.5px ; outline: none&quot;&gt;&lt;div class=&quot;fxc-copyablelabel-copybutton fxc-copyablelabel-alignbutton fxc-base azc-control azc-button fxt-button fxs-inner-solid-border azc-button-default fxs-portal-button-primary&quot; tabindex=&quot;0&quot; style=&quot;font-weight: inherit ; background: none transparent ; align-items: center ; justify-content: center ; border-width: 0px ; border-style: solid ; box-sizing: border-box ; overflow: hidden ; min-width: 0px ; padding: 2px 1px 0px ; height: 24px ; cursor: pointer ; text-align: center ; line-height: 1.385 ; color: rgb(255 , 255 , 255) ; outline-width: 1px ; border-radius: 2px ; text-overflow: ellipsis ; position: relative ; float: right ; display: table ; margin: 0px ; border-color: rgb(0 , 120 , 212) ; outline-style: none&quot;&gt;&lt;div class=&quot;fxc-copyablelabel-clicked fxc-copyablelabel-anchor&quot; style=&quot;font-weight: inherit ; position: absolute ; height: 0px ; width: 12px ; top: 4.825px ; left: 6px ; outline: none&quot;&gt;&lt;/div&gt;&lt;div class=&quot;fxc-copyablelabel-hover fxc-copyablelabel-anchor fxc-base fxc-dockedballoon azc-control azc-control-disabled azc-dockedballoon azc-dockedballoon-validation azc-bg-default&quot; style=&quot;font-weight: inherit ; display: inline-block ; vertical-align: top ; box-sizing: border-box ; border-color: rgba(127 , 127 , 127 , 0.7) ; position: absolute ; height: 0px ; width: 12px ; top: 4.825px ; left: 6px ; outline: none&quot;&gt;&lt;div class=&quot;azc-dockedballoon-anchor&quot; tabindex=&quot;0&quot; style=&quot;font-size: 12px ; font-weight: bold ; cursor: pointer ; line-height: 16px ; visibility: hidden ; outline: none&quot;&gt;&lt;span class=&quot;azc-nonFabric-svg&quot; style=&quot;font-weight: inherit ; outline: none&quot;&gt;&lt;/span&gt;&lt;/div&gt;&lt;/div&gt;&lt;div class=&quot;fxc-copyablelabel-copyimage&quot; style=&quot;font-weight: inherit ; vertical-align: middle ; padding: 3px ; width: 22px ; height: 22px ; box-sizing: border-box ; display: inline-block ; outline: none&quot;&gt;&lt;/div&gt;&lt;/div&gt;&lt;div class=&quot;fxs-hide-accessible-label&quot; id=&quot;fxc-copyablelabel-ae8eeda3-a690-4579-bc84-7ee5ba2f80c2&quot; style=&quot;font-weight: inherit ; overflow: hidden ; position: absolute ; top: -1000px ; left: -1000px ; width: 0px ; height: 0px ; outline: none&quot;&gt;&lt;/div&gt;&lt;/div&gt;&lt;/div&gt;&lt;/div&gt;&lt;/div&gt;&lt;/div&gt;" style="text;html=1;resizable=0;autosize=1;align=center;verticalAlign=middle;points=[];fillColor=none;strokeColor=none;rounded=0;" vertex="1" parent="1">
          <mxGeometry x="552" y="90" width="180" height="40" as="geometry" />
        </mxCell>
        <mxCell id="21_OyphQgtopROuSo2bV-32" value="Web-1&lt;br&gt;10.0.0.5" style="text;html=1;resizable=0;autosize=1;align=center;verticalAlign=middle;points=[];fillColor=none;strokeColor=none;rounded=0;" vertex="1" parent="1">
          <mxGeometry x="542" y="455" width="60" height="30" as="geometry" />
        </mxCell>
        <mxCell id="21_OyphQgtopROuSo2bV-33" value="Web-2&lt;br&gt;10.0.0.6" style="text;html=1;resizable=0;autosize=1;align=center;verticalAlign=middle;points=[];fillColor=none;strokeColor=none;rounded=0;" vertex="1" parent="1">
          <mxGeometry x="682" y="455" width="60" height="30" as="geometry" />
        </mxCell>
        <mxCell id="21_OyphQgtopROuSo2bV-36" value="Port 80 HTTP" style="text;html=1;resizable=0;autosize=1;align=center;verticalAlign=middle;points=[];fillColor=none;strokeColor=none;rounded=0;rotation=-45;" vertex="1" parent="1">
          <mxGeometry x="477" y="145" width="90" height="20" as="geometry" />
        </mxCell>
        <mxCell id="21_OyphQgtopROuSo2bV-40" value="Load Balancer Back End Pool" style="text;html=1;resizable=0;autosize=1;align=center;verticalAlign=middle;points=[];fillColor=none;strokeColor=none;rounded=0;fontSize=14;" vertex="1" parent="1">
          <mxGeometry x="550" y="490" width="200" height="20" as="geometry" />
        </mxCell>
        <mxCell id="21_OyphQgtopROuSo2bV-41" value="DVWA Containers" style="text;html=1;resizable=0;autosize=1;align=center;verticalAlign=middle;points=[];fillColor=none;strokeColor=none;rounded=0;fontSize=14;" vertex="1" parent="1">
          <mxGeometry x="585" y="320" width="130" height="20" as="geometry" />
        </mxCell>
        <mxCell id="21_OyphQgtopROuSo2bV-45" value="SSH Port 22" style="text;html=1;resizable=0;autosize=1;align=center;verticalAlign=middle;points=[];fillColor=none;strokeColor=none;rounded=0;fontSize=14;" vertex="1" parent="1">
          <mxGeometry x="410" y="230" width="90" height="20" as="geometry" />
        </mxCell>
      </root>
    </mxGraphModel>
  </diagram>
</mxfile>
